<?xml version="1.0" standalone="no"?><!DOCTYPE svg PUBLIC "-//W3C//DTD SVG 1.1//EN" "http://www.w3.org/Graphics/SVG/1.1/DTD/svg11.dtd"><svg t="1620989622828" class="icon" viewBox="0 0 1024 1024" version="1.1" xmlns="http://www.w3.org/2000/svg" p-id="10500" xmlns:xlink="http://www.w3.org/1999/xlink" width="48" height="48"><defs><style type="text/css"></style></defs><path d="M324.4032 704.1024H180.06016a8.192 8.192 0 0 1-8.192-8.192V133.9392c0-4.5056 3.6864-8.192 8.192-8.192H324.4032c4.5056 0 8.192 3.6864 8.192 8.192v561.9712a8.192 8.192 0 0 1-8.192 8.192zM569.01632 628.77696h-144.384a8.192 8.192 0 0 1-8.192-8.192V133.9392c0-4.5056 3.6864-8.192 8.192-8.192h144.384c4.5056 0 8.192 3.6864 8.192 8.192v486.64576a8.192 8.192 0 0 1-8.192 8.192zM808.22272 528.42496h-144.384a8.192 8.192 0 0 1-8.192-8.192V133.9392c0-4.5056 3.6864-8.192 8.192-8.192h144.384c4.5056 0 8.192 3.6864 8.192 8.192v386.2528a8.192 8.192 0 0 1-8.192 8.23296z" fill="#586A96" p-id="10501"></path><path d="M569.01632 898.2528h-144.384a8.192 8.192 0 0 1-8.192-8.192v-308.224c0-4.5056 3.6864-8.192 8.192-8.192h144.384c4.5056 0 8.192 3.6864 8.192 8.192v308.224a8.192 8.192 0 0 1-8.192 8.192z" fill="#346BAA" p-id="10502"></path><path d="M324.4032 898.2528H180.06016a8.192 8.192 0 0 1-8.192-8.192v-193.29024c0-4.5056 3.6864-8.192 8.192-8.192H324.4032c4.5056 0 8.192 3.6864 8.192 8.192v193.29024a8.192 8.192 0 0 1-8.192 8.192z" fill="#43A3D4" p-id="10503"></path><path d="M808.22272 898.2528h-144.384a8.192 8.192 0 0 1-8.192-8.192V367.49312c0-4.5056 3.6864-8.192 8.192-8.192h144.384c4.5056 0 8.192 3.6864 8.192 8.192V890.0608a8.192 8.192 0 0 1-8.192 8.192z" fill="#64B064" p-id="10504"></path><path d="M31.29344 880.59904v7.33184c0 5.69344 4.62848 10.32192 10.32192 10.32192h940.76928a10.32192 10.32192 0 0 0 10.32192-10.32192v-7.33184a10.32192 10.32192 0 0 0-10.32192-10.32192H41.61536a10.40384 10.40384 0 0 0-10.32192 10.32192z" fill="#4B7AB5" p-id="10505"></path><path d="M41.61536 898.2528h7.33184a10.32192 10.32192 0 0 0 10.32192-10.32192V136.06912a10.32192 10.32192 0 0 0-10.32192-10.32192h-7.33184a10.32192 10.32192 0 0 0-10.32192 10.32192v751.86176c0 5.65248 4.66944 10.32192 10.32192 10.32192z" fill="#4B7AB5" p-id="10506"></path><path d="M101.94944 755.42528a16.384 16.384 0 0 1-7.04512-31.17056l282.624-134.88128 238.96064-406.89664a16.42496 16.42496 0 0 1 26.0096-2.99008l261.07904 274.14528a16.34304 16.34304 0 0 1-0.6144 23.1424 16.34304 16.34304 0 0 1-23.1424-0.57344l-246.08768-258.41664-230.48192 392.47872a16.1792 16.1792 0 0 1-7.08608 6.47168L108.9536 753.78688a15.27808 15.27808 0 0 1-7.00416 1.6384z" fill="#43A3D4" p-id="10507"></path></svg>