<?xml version="1.0" standalone="no"?><!DOCTYPE svg PUBLIC "-//W3C//DTD SVG 1.1//EN" "http://www.w3.org/Graphics/SVG/1.1/DTD/svg11.dtd"><svg t="1620989538458" class="icon" viewBox="0 0 1024 1024" version="1.1" xmlns="http://www.w3.org/2000/svg" p-id="7707" width="48" height="48" xmlns:xlink="http://www.w3.org/1999/xlink"><defs><style type="text/css"></style></defs><path d="M881.2 131.1c0-5.7-2.2-11-6.2-15L846.9 88c-8.3-8.3-21.8-8.3-30.1 0l-44.6 44.6c-4 4-6.2 9.4-6.2 15v595.1c0 13.2 10.8 24 24 24h67.2c13.2 0 24-10.8 24-24V131.1zM702.3 253.9c0-19-22.9-28.4-36.4-15l-72.6 72.6c-4 4-6.2 9.4-6.2 15v416.3c0 13.2 10.8 24 24 24h67.2c13.2 0 24-10.8 24-24V253.9zM523.4 263.6c0-5.7-2.2-11-6.2-15l-72.7-72.7c-8.3-8.3-21.8-8.3-30.1 0-4 4-6.2 9.4-6.2 15v551.9c0 13.2 10.8 24 24 24h67.2c13.2 0 24-10.8 24-24V263.6zM344.5 297.1c0-19-22.9-28.4-36.4-15l-72.6 72.6c-4 4-6.2 9.4-6.2 15v372.9c0 13.2 10.8 24 24 24h67.2c13.2 0 24-10.8 24-24V297.1z" fill="#1296db" p-id="7708"></path><path d="M981.3 1024H185.7C83.1 1024 0 940.9 0 838.3V42.7C0 19.1 19.1 0 42.7 0s42.7 19.1 42.7 42.7V753c0 102.6 83.1 185.7 185.7 185.7h710.3c23.6 0 42.7 19.1 42.7 42.7-0.1 23.5-19.2 42.6-42.8 42.6z" p-id="7709" fill="#1296db"></path></svg>