<?xml version="1.0" standalone="no"?><!DOCTYPE svg PUBLIC "-//W3C//DTD SVG 1.1//EN" "http://www.w3.org/Graphics/SVG/1.1/DTD/svg11.dtd"><svg t="1620871901070" class="icon" viewBox="0 0 1024 1024" version="1.1" xmlns="http://www.w3.org/2000/svg" p-id="7624" xmlns:xlink="http://www.w3.org/1999/xlink" width="48" height="48"><defs><style type="text/css"></style></defs><path d="M872.8 98.2H150.4c-47.9 0-87 39.3-87 87.5v532.6c0 48.1 39.1 87.5 87 87.5h225.5l112.3 112.8c6.7 6.7 14.9 9.8 23.7 9.8 8.8 0 17-3.1 23.7-9.8l112.3-112.8h225.5c47.9 0 87-39.3 87-87.5V185.6c-0.6-48.1-39.2-87.4-87.6-87.4z m20.1 620c0 10.9-8.8 20.2-20.1 20.2H640.6c-10.3-2.1-21.6 1-29.9 9.3L511.8 847 413 747.7c-8.2-8.3-19.6-11.4-29.9-9.3H150.4c-10.8 0-20.1-8.8-20.1-20.2V185.6c0-10.9 8.8-20.2 20.1-20.2h722.5c11.3 0 20.1 8.8 20.1 20.2v532.6h-0.1z" fill="#3E3A39" p-id="7625"></path><path d="M246.7 254.5c-17 0-30.9 13.5-31.9 30.5v320.9c0 17.6 14.4 32.1 31.9 32.1s31.9-14.5 31.9-32.1V285c-1.1-17.1-15-30.5-31.9-30.5z" fill="#FA7268" p-id="7626"></path><path d="M514.9 375.6c-9.3-7.2-21.1-12.4-34.5-15-13.4-3.1-28.8-4.1-45.8-4.1-14.4 0-27.3 1.6-38.1 4.1-10.8 2.6-20.6 6.2-28.8 10.4-8.2 4.1-15.4 9.3-21.1 14.5-4.6 4.7-8.8 9.8-11.8 14.5-4.6 5.7-7.7 12.9-7.7 20.7 0 17.6 14.4 32.1 31.9 32.1 15.4 0 28.3-10.9 31.4-25.4l0.5-0.5c2.6-2.6 5.7-5.2 9.3-7.2 4.1-2.1 8.8-4.1 13.9-5.2 5.7-1.6 11.8-2.1 19.6-2.1s14.9 0.5 21.1 2.1c5.7 1 10.3 3.1 13.9 5.7 3.6 2.6 6.2 5.7 8.2 9.8 2.1 4.1 3.1 10.4 3.1 17.1v4.7l-48.9 4.7c-14.4 1.6-27.8 3.6-39.7 7.2-12.4 3.6-23.7 8.3-33 15-9.3 6.7-17 16-22.1 26.9-5.1 10.9-8.2 24.3-8.2 39.9 0 11.9 2.1 22.8 5.7 33.1 3.6 9.8 9.3 19.1 16.5 26.4 7.2 7.2 16 13.5 26.3 17.1 10.3 4.1 22.1 6.2 35.5 6.2 16 0 30.9-3.6 44.8-10.4 8.8-4.7 17.5-9.8 25.7-16v9.8c0 17.1 13.9 31.1 30.9 31.1s30.9-14 30.9-31.1V448c0-17.1-2.6-31.6-7.2-43.5-5.3-11.9-12.5-21.7-22.3-28.9z m-35 169.2c-4.1 3.1-8.2 6.7-12.4 9.3-5.1 3.6-10.3 6.7-14.9 9.3-5.1 2.6-9.8 4.7-14.4 6.2-4.6 1.6-8.8 2.1-12.9 2.1-10.8 0-18.5-2.1-24.2-6.2-5.1-3.6-7.2-11.4-7.2-21.7 0-6.2 1-11.9 3.6-16s5.7-7.8 10.3-10.9c5.1-3.1 11.3-5.7 18.5-7.2 7.7-2.1 17-3.1 27.3-4.1l26.8-2.6v41.9l-0.5-0.1z m320.8-163c-6.2-8.3-14.4-15-24.7-19.1-9.8-4.1-22.1-6.2-36.6-6.2-8.2 0-16.5 1-24.7 3.6s-16 5.7-23.7 9.3c-7.7 4.1-14.4 8.8-21.6 14l-6.2 4.7v-5.7 4.7c0-17.6-14.4-31.6-31.9-31.6s-31.9 14-31.9 31.6v-4.7V611c0 17.6 14.4 32.1 31.9 32.1s31.9-14.5 31.9-32.1V449.6c4.6-4.1 9.3-7.8 14.4-11.9 5.7-4.1 11.3-8.3 17-11.4 5.7-3.1 10.8-5.7 16.5-7.8 5.1-1.6 9.8-2.6 13.9-2.6 6.7 0 11.8 1 15.4 2.6 3.1 1.6 5.7 4.1 7.7 8.3 2.1 4.7 3.6 10.4 4.1 18.1 0.5 8.3 1 18.1 1 30V611c0 17.6 14.4 32.1 31.9 32.1S817 628.6 817 611V451.1c0-14.5-1-27.4-3.6-38.8-1.9-11.9-6.5-22.3-12.7-30.5z" fill="#3E3A39" p-id="7627"></path></svg>