<?xml version="1.0" standalone="no"?><!DOCTYPE svg PUBLIC "-//W3C//DTD SVG 1.1//EN" "http://www.w3.org/Graphics/SVG/1.1/DTD/svg11.dtd"><svg t="1620871622943" class="icon" viewBox="0 0 1024 1024" version="1.1" xmlns="http://www.w3.org/2000/svg" p-id="2027" xmlns:xlink="http://www.w3.org/1999/xlink" width="48" height="48"><defs><style type="text/css"></style></defs><path d="M512 65C265.13 65 65 265.13 65 512s200.13 447 447 447 447-200.13 447-447S758.87 65 512 65z m266.48 459a34.32 34.32 0 0 1-47.07 3l-22.87-19.24V696.2c0 44.38-13.45 80.49-59.55 80.49H600c-15.8 0-29.43-10.68-32.66-25.56l-0.81-3.77a30.74 30.74 0 0 1-0.7-6.54V593c0-9-7.59-16.25-16.9-16.25h-73.87c-9.29 0-16.87 7.3-16.87 16.25v151.58c0 17.73-14.94 32.11-33.35 32.11H375c-46.09 0-59.55-36.11-59.55-80.49V507.76L292.59 527a34.28 34.28 0 0 1-47.07-3 31.29 31.29 0 0 1 3.16-45.31L490 255.31a34.35 34.35 0 0 1 40.28-2.76l1.2 0.78 0.15 0.12 1 0.74 0.32 0.26 0.84 0.67 0.15 0.11 241.38 223.43a31.29 31.29 0 0 1 3.16 45.34z" p-id="2028" fill="#1afa29"></path></svg>