<?xml version="1.0" standalone="no"?><!DOCTYPE svg PUBLIC "-//W3C//DTD SVG 1.1//EN" "http://www.w3.org/Graphics/SVG/1.1/DTD/svg11.dtd"><svg t="1620884639057" class="icon" viewBox="0 0 1024 1024" version="1.1" xmlns="http://www.w3.org/2000/svg" p-id="1928" xmlns:xlink="http://www.w3.org/1999/xlink" width="48" height="48"><defs><style type="text/css"></style></defs><path d="M512 512m-512 0a512 512 0 1 0 1024 0 512 512 0 1 0-1024 0Z" fill="#fe6943" p-id="1929"></path><path d="M770.366578 284.444444H253.6448A25.873067 25.873067 0 0 0 227.555556 310.180978v313.730844c0 14.392889 11.798756 25.736533 26.089244 25.736534H401.749333l91.602489 90.373688c4.972089 4.892444 11.491556 7.657244 18.6368 7.657245 7.145244 0 13.653333-2.753422 18.6368-7.657245l91.591111-90.373688h148.138667A25.873067 25.873067 0 0 0 796.444444 623.911822V310.180978C796.444444 296.083911 784.645689 284.444444 770.3552 284.444444z m-117.077334 230.0928c-26.396444 0-47.8208-21.139911-47.8208-47.183644 0-26.055111 21.424356-47.183644 47.8208-47.183644 26.396444 0 47.8208 21.139911 47.8208 47.183644s-21.424356 47.183644-47.8208 47.183644zM333.141333 467.3536c0-26.055111 21.435733-47.183644 47.832178-47.183644s47.8208 21.139911 47.8208 47.183644-21.435733 47.183644-47.8208 47.183644c-26.396444 0-47.832178-21.139911-47.832178-47.183644z m131.982223 0c0-26.055111 21.424356-47.183644 47.8208-47.183644 26.396444 0 47.8208 21.139911 47.8208 47.183644s-21.424356 47.183644-47.8208 47.183644c-26.396444 0-47.8208-21.139911-47.8208-47.183644z" fill="#FFFFFF" p-id="1930"></path></svg>