<?xml version="1.0" standalone="no"?><!DOCTYPE svg PUBLIC "-//W3C//DTD SVG 1.1//EN" "http://www.w3.org/Graphics/SVG/1.1/DTD/svg11.dtd"><svg t="1620871828716" class="icon" viewBox="0 0 1024 1024" version="1.1" xmlns="http://www.w3.org/2000/svg" p-id="5526" xmlns:xlink="http://www.w3.org/1999/xlink" width="48" height="48"><defs><style type="text/css"></style></defs><path d="M931.63318 393.055232v548.776928c0 45.389911-36.777928 82.16784-82.145839 82.16784H174.514659c-38.775924 0-71.267861-26.867948-79.901844-63.005877l-0.329999-46.975908-1.915996-279.755454V82.16784C92.36682 36.777928 129.144748 0 174.514659 0H538.579948c32.717936 0 138.681729 90.345824 232.345546 185.493638 85.463833 86.84383 160.707686 177.685653 160.707686 207.561594z" fill="#DDEAFB" p-id="5527"></path><path d="M931.63318 393.055232v201.029608c0-0.226-0.02-0.453999-0.02-0.699999-6.181988-246.665518-207.107595-258.079496-272.811467-323.785368l112.123781-84.103835c85.463833 86.84183 160.707686 177.683653 160.707686 207.559594z" fill="#CBE2FF" p-id="5528"></path><path d="M538.567948 0H337.538341c0.226 0 0.453999 0.02 0.699998 0.02 246.665518 6.181988 258.079496 207.107595 323.785368 272.811467l84.103836-112.123781C659.283712 75.243853 568.44389 0 538.567948 0z" fill="#CBE2FF" p-id="5529"></path><path d="M931.63118 393.065232v34.753932c0-73.171857-59.333884-132.505741-132.505741-132.505741h-80.647842c-45.367911 0-82.16184-36.793928-82.16184-82.161839V132.505741C636.317757 59.333884 576.981873 0 503.812016 0h34.753932c62.579878 0 122.615761 24.865951 166.865674 69.113865l157.085693 157.085693a236.005539 236.005539 0 0 1 69.113865 166.865674z" fill="#BED8FB" p-id="5530"></path><path d="M792.909451 861.538317h-561.838902a15.45197 15.45197 0 1 1 0-30.903939h561.838902c8.535983 0 15.45197 6.917986 15.45197 15.451969s-6.915986 15.45197-15.45197 15.45197zM437.466146 943.728157H231.076549a15.45197 15.45197 0 1 1 0-30.90394h206.389597a15.45197 15.45197 0 1 1 0 30.90394zM437.466146 148.43371H231.076549a15.45197 15.45197 0 1 1 0-30.90394h206.389597a15.45197 15.45197 0 1 1 0 30.90394z" fill="#475959" p-id="5531"></path><path d="M316.400382 232.157547h-82.937838c-20.991959 0-38.009926 17.017967-38.009926 38.009925v474.485074c0 20.991959 17.017967 38.009926 38.009926 38.009925H316.400382c20.991959 0 38.009926-17.017967 38.009926-38.009925V270.167472c-0.002-20.991959-17.017967-38.009926-38.009926-38.009925z" fill="#78D0B1" p-id="5532"></path><path d="M553.463919 582.474862h-82.937838c-20.991959 0-38.009926 17.017967-38.009926 38.009926v124.167758c0 20.991959 17.017967 38.009926 38.009926 38.009925h82.937838c20.991959 0 38.009926-17.017967 38.009926-38.009925v-124.167758c-0.002-20.991959-17.017967-38.009926-38.009926-38.009926z" fill="#DD636E" p-id="5533"></path><path d="M790.525456 388.94124h-82.937838c-20.991959 0-38.009926 17.017967-38.009926 38.009926v317.70338c0 20.991959 17.017967 38.009926 38.009926 38.009925h82.937838c20.991959 0 38.009926-17.017967 38.009926-38.009925V426.949166c0-20.991959-17.017967-38.007926-38.009926-38.007926z" fill="#F1D333" p-id="5534"></path></svg>