<?xml version="1.0" standalone="no"?><!DOCTYPE svg PUBLIC "-//W3C//DTD SVG 1.1//EN" "http://www.w3.org/Graphics/SVG/1.1/DTD/svg11.dtd"><svg t="1620884677016" class="icon" viewBox="0 0 1024 1024" version="1.1" xmlns="http://www.w3.org/2000/svg" p-id="4243" xmlns:xlink="http://www.w3.org/1999/xlink" width="48" height="48"><defs><style type="text/css"></style></defs><path d="M696.2 229.2l6.2 716.8-455.2-147.8-6.2-716.8z" fill="#E8BE52" p-id="4244"></path><path d="M696.2 229.2l73.2-29.8 6.2 716.8-73.2 29.8z" fill="#D89D3B" p-id="4245"></path><path d="M241 81.4l73.2-29.8 455.2 147.8-73.2 29.8z" fill="#E4D564" p-id="4246"></path><path d="M619.4 269.8l5.6 634.2-370.6-120.4-5.6-634.2z" fill="#EFEEEA" p-id="4247"></path><path d="M619.4 269.8l14.6-6 5.6 634.2-14.6 6z" fill="#EFDFB7" p-id="4248"></path><path d="M248.8 149.4l14.8-6L634 263.8l-14.6 6z" fill="#FBFAEB" p-id="4249"></path><path d="M176 209L241.8 182l263 85.4-66 27z" fill="#E9D267" p-id="4250"></path><path d="M438.8 294.4l66-27 34 81.8-65.8 26.8z" fill="#D89D3B" p-id="4251"></path><path d="M438.8 294.4l34.2 81.6 158.8 51.6 4.8 544.8-455.2-147.8L176 209z" fill="#E8BE52" p-id="4252"></path><path d="M473 376l65.8-26.8 159 51.6-66 26.8z" fill="#E4D564" p-id="4253"></path><path d="M631.8 427.6l66-26.8 4.6 544.8-65.8 26.8z" fill="#D89D3B" p-id="4254"></path><path d="M315 595.8l29.2-12 0.6 71.6-29.2 12z" fill="#466BA2" p-id="4255"></path><path d="M315.6 667.4l29.2-12 57 18.6-29.4 12zM315 595.8l29.2-12 57 18.4-29.4 12z" fill="#3F6091" p-id="4256"></path><path d="M370.6 478.2l1.2 136-56.8-18.4 0.6 71.6 56.8 18.6-56.8-18.6-1.8-207.6z" fill="#E85252" p-id="4257"></path><path d="M370.6 478.2l29.4-12 1.2 136-29.4 12z" fill="#C62A2A" p-id="4258"></path><path d="M313.8 459.8l29.2-12 57 18.4-29.4 12z" fill="#FC9292" p-id="4259"></path><path d="M508.4 658.6l29.4-12 0.6 71.8-29.4 11.8z" fill="#C62A2A" p-id="4260"></path><path d="M508.4 658.6l0.6 71.6-136.6-44.2-56.8-18.6-0.6-71.6 56.8 18.4z" fill="#E85252" p-id="4261"></path><path d="M371.8 614.2l29.4-12 136.6 44.4-29.4 12z" fill="#FC9292" p-id="4262"></path></svg>